<svg width="1365" height="416" viewBox="0 0 1365 416" fill="none" xmlns="http://www.w3.org/2000/svg">
<rect x="25" y="35" width="324" height="323" stroke="#4031E3" stroke-width="50"/>
<path d="M122.252 300L374 13L0 13L122.252 300Z" fill="#4031E3"/>
<path d="M427.895 12.0909H405.292V119H427.895V12.0909ZM534.922 12.0909H522.185V96.2401H521.141L462.675 12.0909H450.146V119H463.092V35.0597H464.136L522.393 119H534.922V12.0909ZM551.848 35.4773H584.004V119H612.611V35.4773H644.767V12.0909H551.848V35.4773ZM747.983 65.5455C747.983 32.8672 730.026 10.6293 703.716 10.6293C677.354 10.6293 659.449 32.9194 659.449 65.5455C659.449 98.1193 677.302 120.462 703.716 120.462C730.026 120.462 747.983 98.2237 747.983 65.5455ZM744.642 65.5455C744.694 96.2401 728.042 117.121 703.716 117.121C679.129 117.121 662.79 96.0312 662.79 65.5455C662.79 34.642 679.494 13.9702 703.716 13.9702C728.042 13.9702 744.59 34.8509 744.642 65.5455ZM424.607 144.091H399.498L436.404 251H465.533L502.387 144.091H477.33L451.438 225.317H450.446L424.607 144.091ZM537.858 144.091H515.255V251H537.858V144.091ZM646.555 144.091H617.531V200.051H616.696L578.693 144.091H554.054V251H583.078V194.831H583.704L622.334 251H646.555V144.091ZM751.324 177.5C747.826 157.82 731.748 142.629 708.988 142.629C682 142.629 662.79 164.084 662.79 197.545C662.79 231.007 682 252.462 708.988 252.462C731.748 252.462 747.826 237.219 751.324 217.591H741.51C738.535 232.26 725.745 243.274 708.988 243.274C688.734 243.274 672.238 227.248 672.238 197.545C672.238 167.947 688.734 151.817 708.988 151.817C725.745 151.817 738.535 162.884 741.51 177.5H751.324ZM769.347 251H841.594V232.364H791.95V206.837H837.679V188.201H791.95V162.727H841.385V144.091H769.347V251ZM947.211 144.091H940.738V239.255H940.111L871.936 144.091H865.515V251H872.04V155.941H872.667L940.842 251H947.211V144.091ZM978.897 155.575H1012.52L996.646 251H1009.59L1025.46 155.575H1059.08L1060.96 144.091H980.777L978.897 155.575ZM1076.29 144.091H1070.13V153.539C1070.13 161.683 1065.75 170.453 1059.64 176.299L1063.14 179.797C1071.49 173.115 1076.29 162.048 1076.29 153.487V144.091ZM1153.58 170.818H1163.03C1162.29 154.583 1148.25 142.577 1128.36 142.577C1108.63 142.577 1093.44 154.427 1093.44 171.653C1093.44 185.382 1103.15 193.996 1119.91 198.955L1132.7 202.713C1145.96 206.576 1155.04 211.536 1155.04 222.446C1155.04 235.287 1143.4 243.901 1127.42 243.901C1113.02 243.901 1101.74 236.958 1100.7 224.273H1090.67C1091.82 241.186 1105.6 252.827 1127.42 252.827C1150.6 252.827 1164.49 239.724 1164.49 222.602C1164.49 204.854 1149.04 197.754 1135.46 193.944L1124.19 190.707C1113.8 187.784 1102.89 182.511 1102.89 171.236C1102.89 159.751 1113.17 151.347 1128.1 151.347C1142.25 151.347 1152.38 158.916 1153.58 170.818ZM415.158 276.091L397.409 383H422.571L433.637 316.965H434.525L449.35 382.321H465.376L501.813 317.33H502.7L491.79 383H516.951L534.7 276.091H502.7L464.593 342.283H463.34L447.158 276.091H415.158ZM563.554 276.091H540.951V383H563.554V276.091ZM670.581 276.091H657.844V360.24H656.8L598.334 276.091H585.805V383H598.751V299.06H599.795L658.053 383H670.581V276.091ZM729.478 383C762.051 383 780.426 362.746 780.426 329.337C780.426 296.136 762.051 276.091 730.939 276.091H696.486V383H729.478ZM709.432 371.516V287.575H730.104C755.161 287.575 767.898 303.445 767.898 329.337C767.898 355.438 755.161 371.516 728.642 371.516H709.432Z" fill="#4031E3"/>
<rect x="777" y="10" width="453" height="95" rx="30" fill="#FFE8E8"/>
<path d="M867.428 75L870.127 66.7081H883.249L885.947 75H894.186L881.651 38.6364H871.743L859.19 75H867.428ZM872.08 60.7067L876.555 46.946H876.839L881.313 60.7067H872.08ZM898.563 75H906.251V62.1094H911.862L918.751 75H927.238L919.515 60.8665C923.652 59.0909 925.942 55.4865 925.942 50.5149C925.942 43.2884 921.166 38.6364 912.909 38.6364H898.563V75ZM906.251 55.9304V44.9219H911.436C915.875 44.9219 918.023 46.8928 918.023 50.5149C918.023 54.1193 915.875 55.9304 911.471 55.9304H906.251ZM929.99 44.9751H941.123V75H948.723V44.9751H959.855V38.6364H929.99V44.9751ZM976.346 75H984.034V62.1094H989.645L996.534 75H1005.02L997.298 60.8665C1001.43 59.0909 1003.73 55.4865 1003.73 50.5149C1003.73 43.2884 998.949 38.6364 990.693 38.6364H976.346V75ZM984.034 55.9304V44.9219H989.219C993.658 44.9219 995.806 46.8928 995.806 50.5149C995.806 54.1193 993.658 55.9304 989.254 55.9304H984.034ZM1015.43 75L1018.13 66.7081H1031.25L1033.95 75H1042.18L1029.65 38.6364H1019.74L1007.19 75H1015.43ZM1020.08 60.7067L1024.55 46.946H1024.84L1029.31 60.7067H1020.08ZM1040.68 44.9751H1051.82V75H1059.42V44.9751H1070.55V38.6364H1040.68V44.9751ZM1075.47 75H1100.04V68.6612H1083.16V59.9787H1098.71V53.6399H1083.16V44.9751H1099.97V38.6364H1075.47V75ZM1106.08 75H1113.77V62.1094H1119.38L1126.27 75H1134.76L1127.03 60.8665C1131.17 59.0909 1133.46 55.4865 1133.46 50.5149C1133.46 43.2884 1128.69 38.6364 1120.43 38.6364H1106.08V75ZM1113.77 55.9304V44.9219H1118.96C1123.39 44.9219 1125.54 46.8928 1125.54 50.5149C1125.54 54.1193 1123.39 55.9304 1118.99 55.9304H1113.77Z" fill="#FF0000"/>
</svg>
